# Blender v2.81 (sub 16) OBJ File: 'NatureFreePack1.blend'
# www.blender.org
mtllib ground.mtl
g Plane.001
v -34.515888 -0.145412 35.990955
v 34.197163 -0.202169 35.990955
v -34.422459 -0.202169 -35.990955
v 34.197178 -0.202169 -35.990955
v -34.809376 1.302569 35.749180
v 34.202278 15.785771 35.645969
v -34.261547 18.073746 -35.145241
v 34.242275 13.403399 -36.070190
v -34.422459 -0.202169 0.000000
v 34.197178 -0.202169 0.000000
v -34.422459 10.962330 0.000000
v 33.990082 15.828859 0.338044
v -0.112639 -0.202169 35.990955
v -0.112639 -0.202169 -35.990955
v -0.016740 1.677885 36.215302
v -0.112639 13.819702 -35.990955
v -0.112639 11.052418 0.000000
v -0.112639 -0.202169 0.000000
v 17.042271 -0.202169 35.990955
v 17.044559 11.934467 35.836182
v 17.042271 -0.202169 0.000000
v 17.042271 -0.202169 -35.990955
v 17.122925 13.075166 -36.132664
v 16.475494 15.957479 0.456508
v -34.422459 -0.202169 17.995478
v -34.622356 1.916981 18.167723
v 34.197178 -0.202169 17.995478
v 34.063286 14.779902 18.119259
v -0.112639 -0.202169 17.995478
v -0.765792 4.452348 18.217024
v 17.042271 -0.202169 17.995478
v 16.320782 13.305777 19.121515
v 34.197178 -0.202169 -17.995478
v 34.197178 13.819702 -17.995478
v -34.449471 -0.202169 -17.995478
v -34.366272 15.266223 -18.051966
v -0.112639 13.819702 -17.995478
v -0.112639 -0.202169 -17.995478
v 17.829746 15.758309 -19.393490
v 17.042271 -0.202169 -17.995478
v -17.267548 -0.202169 -35.990955
v -17.621540 17.087431 -35.369007
v -16.678978 12.401955 -0.291559
v -17.267548 -0.202169 35.990955
v -17.198948 1.684500 36.406155
v -17.267548 -0.202169 0.000000
v -16.921047 3.940724 17.829819
v -17.267548 -0.202169 17.995478
v -17.267548 -0.202169 -17.995478
v -18.062294 15.600265 -17.861729
v -8.690094 -0.202169 35.990955
v -8.609503 1.706173 36.377594
v -8.690094 -0.202169 0.000000
v -8.690094 -0.202169 17.995478
v -8.690094 -0.202169 -17.995478
v -7.421000 -0.181640 -34.567142
v -8.853550 15.328580 -35.703770
v -8.282187 11.987711 -0.202065
v -9.155840 4.035950 18.194948
v -8.690094 13.819702 -17.995478
v 8.464815 -0.202169 -35.990955
v 8.464815 13.819702 -35.990955
v 8.464815 11.052418 0.000000
v 8.464815 -0.202169 35.990955
v 8.464815 2.948082 35.990955
v 8.464815 -0.202169 0.000000
v 7.818545 4.508376 18.410723
v 8.464815 -0.202169 17.995478
v 8.464815 -0.202169 -17.995478
v 9.002868 15.069340 -18.882030
v 25.619724 -0.202169 35.990955
v 25.623287 15.193865 35.749832
v 25.619724 -0.202169 0.000000
v 25.619724 -0.202169 -35.990955
v 25.619724 13.819702 -35.990955
v 24.684338 16.280289 1.191115
v 25.619724 -0.202169 17.995478
v 25.674332 15.552617 19.808842
v 25.619724 13.819702 -17.995478
v 25.619724 -0.202169 -17.995478
v -25.845005 -0.202169 -35.990955
v -25.881443 18.027723 -35.133823
v -25.845005 9.933973 0.000000
v -25.845005 2.948082 17.995478
v -26.163181 15.309574 -18.874653
v -25.845005 -0.202169 35.990955
v -25.942829 1.799018 36.434086
v -25.845005 -0.202169 0.000000
v -25.845005 -0.202169 17.995478
v -25.845005 -0.202169 -17.995478
v -34.422459 -0.202169 26.993217
v -34.622623 1.470521 27.168798
v -0.112639 -0.202169 26.993217
v 17.042271 -0.202169 26.993217
v 34.197178 -0.202169 26.993217
v 34.019855 15.091350 27.157148
v -0.112639 2.948082 26.993217
v 17.042271 11.052418 26.993217
v -17.267548 -0.202169 26.993217
v -17.267548 2.948082 26.993217
v -8.690094 -0.202169 26.993217
v -8.690094 2.948082 26.993217
v 8.464815 -0.202169 26.993217
v 8.464815 2.948082 26.993217
v 25.619724 13.819702 26.993217
v 25.619724 -0.202169 26.993217
v -25.845005 2.948082 26.993217
v -25.845005 -0.202169 26.993217
v 34.197178 -0.202169 8.997739
v 33.913837 15.851633 9.259682
v -0.649838 4.232265 9.308055
v 16.538197 13.263230 9.735722
v -34.422459 -0.202169 8.997739
v -34.451931 2.189330 9.027369
v -0.112639 -0.202169 8.997739
v 17.042271 -0.202169 8.997739
v -16.960506 3.702709 8.963047
v -17.267548 -0.202169 8.997739
v -8.690094 2.948082 8.997739
v -8.690094 -0.202169 8.997739
v 7.570890 13.128881 9.349160
v 8.464815 -0.202169 8.997739
v 25.619724 -0.202169 8.997739
v 25.021130 16.069805 10.318550
v -25.845005 -0.202169 8.997739
v -25.845005 2.948082 8.997739
v -34.422459 -0.202169 -8.997739
v -34.388798 14.686296 -9.031580
v -0.112639 -0.202169 -8.997739
v 17.042271 -0.202169 -8.997739
v 34.197178 -0.202169 -8.997739
v 34.197178 13.819702 -8.997739
v -0.058444 14.138303 -9.094158
v 17.042271 13.819702 -8.997739
v -17.267548 13.819702 -8.997739
v -17.267548 -0.202169 -8.997739
v -8.690094 13.819702 -8.997739
v -8.690094 -0.202169 -8.997739
v 8.309953 14.413577 -8.802677
v 8.464815 -0.202169 -8.997739
v 25.619724 -0.202169 -8.997739
v 25.619724 13.819702 -8.997739
v -25.845005 -0.202169 -8.997739
v -25.845005 13.819702 -8.997739
v 34.197178 -0.202169 -26.939531
v 34.197178 -0.202169 -27.046902
v 34.197178 13.819702 -27.046902
v 34.197178 13.819702 -26.939531
v -0.112639 13.819702 -27.046902
v -0.112639 13.819702 -26.939531
v 17.042271 13.819702 -27.046902
v 17.042271 13.819702 -26.939531
v -34.422459 -0.202169 -26.939531
v -34.422459 -0.202169 -27.046902
v -33.921062 16.068428 -26.583834
v -33.896534 16.160147 -26.876381
v -0.112639 -0.202169 -26.939531
v -0.112639 -0.202169 -27.046902
v 17.042271 -0.202169 -26.939531
v 17.042271 -0.202169 -27.046902
v -17.267548 -0.202169 -26.939531
v -17.267548 -0.202169 -27.046902
v -18.300243 16.740334 -26.632278
v -18.639706 16.893909 -26.708609
v -8.690094 -0.202169 -27.046902
v -8.690094 -0.202169 -26.939531
v -8.690094 13.819702 -26.939531
v -8.690094 13.819702 -27.046902
v 8.464815 -0.202169 -27.046902
v 8.464815 -0.202169 -26.939531
v 8.740430 15.413939 -28.267813
v 8.710638 15.331286 -28.313761
v 27.295834 15.046745 -24.887028
v 26.282249 15.675381 -28.398201
v 25.619724 -0.202169 -27.046902
v 25.619724 -0.202169 -26.939531
v -27.217819 16.895388 -26.708498
v -27.072952 16.567898 -25.350063
v -25.845005 -0.202169 -27.046902
v -25.845005 -0.202169 -26.939531
v 33.542755 -0.828680 -17.507309
vt 0.875000 0.875746
vt 1.000000 0.875746
vt 1.000000 1.000000
vt 0.875000 1.000000
vt 0.875000 0.750000
vt 1.000000 0.750000
vt 1.000000 0.874254
vt 0.875000 0.874254
vt 0.875000 0.750000
vt 0.875000 0.874254
vt 1.000000 0.874254
vt 1.000000 0.750000
vt 0.125000 1.000000
vt 0.000000 1.000000
vt 0.000000 1.000000
vt 0.125000 1.000000
vt 0.875000 0.000000
vt 1.000000 0.000000
vt 1.000000 0.000000
vt 0.875000 0.000000
vt 0.000000 0.625000
vt 0.000000 0.500000
vt 0.000000 0.500000
vt 0.000000 0.625000
vt 1.000000 0.375000
vt 1.000000 0.500000
vt 1.000000 0.500000
vt 1.000000 0.375000
vt 0.875000 0.375000
vt 0.875000 0.500000
vt 0.875000 0.375000
vt 0.875000 0.500000
vt 0.375000 0.375000
vt 0.375000 0.500000
vt 0.500000 0.500000
vt 0.500000 0.375000
vt 0.625000 1.000000
vt 0.500000 1.000000
vt 0.500000 1.000000
vt 0.625000 1.000000
vt 0.500000 0.750000
vt 0.625000 0.750000
vt 0.625000 0.874254
vt 0.500000 0.874254
vt 0.625000 0.750000
vt 0.625000 0.874254
vt 0.750000 0.874254
vt 0.750000 0.750000
vt 0.875000 1.000000
vt 0.750000 1.000000
vt 0.750000 1.000000
vt 0.625000 0.375000
vt 0.625000 0.500000
vt 0.750000 0.500000
vt 0.750000 0.375000
vt 0.625000 0.375000
vt 0.750000 0.375000
vt 0.750000 0.500000
vt 0.625000 0.500000
vt 0.750000 0.750000
vt 0.750000 0.874254
vt 0.125000 0.750000
vt 0.125000 0.874254
vt 0.250000 0.874254
vt 0.250000 0.750000
vt 0.625000 0.125000
vt 0.625000 0.250000
vt 0.750000 0.250000
vt 0.750000 0.125000
vt 0.375000 0.125000
vt 0.375000 0.250000
vt 0.500000 0.250000
vt 0.500000 0.125000
vt 0.875000 0.125000
vt 0.875000 0.250000
vt 1.000000 0.250000
vt 1.000000 0.125000
vt 0.875000 0.125000
vt 1.000000 0.125000
vt 1.000000 0.250000
vt 0.875000 0.250000
vt 0.625000 0.625000
vt 0.750000 0.625000
vt 0.625000 0.625000
vt 0.750000 0.625000
vt 0.375000 0.625000
vt 0.375000 0.750000
vt 0.500000 0.750000
vt 0.500000 0.625000
vt 0.375000 0.625000
vt 0.500000 0.625000
vt 0.375000 0.750000
vt 0.000000 0.875746
vt 0.125000 0.875746
vt 1.000000 0.625000
vt 1.000000 0.625000
vt 0.875000 0.625000
vt 0.875000 0.625000
vt 0.125000 0.625000
vt 0.250000 0.625000
vt 0.250000 0.750000
vt 0.125000 0.750000
vt 0.125000 0.625000
vt 0.250000 0.625000
vt 0.125000 0.125000
vt 0.125000 0.250000
vt 0.250000 0.250000
vt 0.250000 0.125000
vt 0.250000 0.875746
vt 0.375000 0.875746
vt 0.375000 1.000000
vt 0.250000 1.000000
vt 0.375000 0.874254
vt 0.250000 0.874254
vt 0.125000 0.375000
vt 0.125000 0.500000
vt 0.250000 0.500000
vt 0.250000 0.375000
vt 0.375000 1.000000
vt 0.250000 1.000000
vt 0.375000 0.874254
vt 0.125000 0.874254
vt 0.500000 0.874254
vt 0.750000 0.125000
vt 0.750000 0.250000
vt 1.000000 1.000000
vt 0.750000 0.000000
vt 0.750000 0.000000
vt 0.000000 0.375000
vt 0.000000 0.750000
vt 0.000000 0.874254
vt 0.000000 0.125000
vt 0.000000 0.250000
vt 0.000000 0.750000
vt 0.000000 0.000000
vt 0.125000 0.000000
vt 0.500000 0.000000
vt 0.625000 0.000000
vt 0.250000 0.000000
vt 0.125000 0.500000
vt 0.500000 0.500000
vt 0.250000 0.500000
vt 0.375000 0.500000
vt 0.000000 0.875746
vt 0.125000 0.875746
vt 0.625000 0.875746
vt 0.750000 0.875746
vt 0.000000 0.874254
vt 0.750000 0.875746
vt 0.375000 0.875746
vt 0.500000 0.875746
vt 0.250000 0.875746
vt 0.875000 0.875746
vt 0.625000 0.875746
vt 0.500000 0.875746
vt 1.000000 0.875746
vt 0.000000 0.000000
vt 0.000000 0.125000
vt 0.375000 0.375000
vt 0.500000 0.375000
vt 0.375000 0.000000
vt 0.500000 0.000000
vt 0.375000 0.000000
vt 0.625000 0.000000
vt 0.625000 0.125000
vt 0.625000 0.250000
vt 0.375000 0.125000
vt 0.500000 0.125000
vt 0.500000 0.250000
vt 0.375000 0.250000
vt 0.000000 0.250000
vt 0.000000 0.375000
vt 0.125000 0.125000
vt 0.250000 0.125000
vt 0.250000 0.250000
vt 0.125000 0.250000
vt 0.250000 0.000000
vt 0.125000 0.000000
vt 0.125000 0.375000
vt 0.250000 0.375000
vn 0.1453 0.9795 -0.1393
vn 0.0901 0.9922 0.0864
vn 0.0000 -1.0000 0.0000
vn 0.0008 0.0466 -0.9989
vn 0.0054 0.0187 0.9998
vn -1.0000 0.0013 -0.0016
vn 0.9999 0.0152 0.0042
vn 0.0378 0.9992 0.0098
vn 0.0000 0.0000 -1.0000
vn -0.1538 0.9879 0.0208
vn 0.0085 -0.0052 -1.0000
vn -0.2854 0.9582 0.0190
vn 0.0482 0.9978 -0.0462
vn -0.0217 0.9960 0.0871
vn 0.9999 0.0103 0.0022
vn -0.0003 0.9921 0.1257
vn -0.0186 0.9997 -0.0177
vn 1.0000 0.0000 0.0000
vn 0.0000 1.0000 0.0000
vn -0.0277 0.9845 0.1734
vn 0.2495 0.9621 0.1101
vn 0.2443 0.9677 0.0624
vn 0.0572 -0.0125 -0.9983
vn -0.1100 -0.0436 -0.9930
vn 0.0990 0.9906 0.0943
vn -0.0276 0.9846 0.1727
vn -0.0864 0.9962 0.0148
vn -0.0084 -0.0052 -1.0000
vn 0.1083 0.9887 0.1032
vn -0.2694 0.9279 0.2576
vn -0.0047 -0.0029 -1.0000
vn -0.1939 0.9684 0.1570
vn 0.0023 0.0144 0.9999
vn 0.0571 0.9936 -0.0971
vn -0.0451 0.9879 0.1486
vn 0.0539 0.9927 0.1079
vn -0.0116 0.0415 -0.9991
vn -0.0033 -1.0000 0.0031
vn -0.3296 0.9365 -0.1199
vn 0.9999 0.0054 -0.0106
vn -0.1079 0.9872 -0.1173
vn -0.2745 0.9611 0.0305
vn 0.0702 0.9941 0.0830
vn 0.9999 0.0135 -0.0076
vn 0.1007 0.9166 0.3870
vn -0.0087 0.9735 -0.2286
vn -0.0211 0.9406 0.3389
vn 0.0230 0.9832 0.1812
vn -0.1273 0.9490 0.2885
vn 0.0140 0.9749 -0.2224
vn 0.9999 0.0068 0.0106
vn 0.0337 0.9639 0.2643
vn -0.2498 0.9665 0.0591
vn -1.0000 0.0039 0.0004
vn -0.9996 0.0183 0.0215
vn -0.0442 0.9820 0.1834
vn -0.1533 0.9772 -0.1470
vn -0.0014 -1.0000 -0.0014
vn 0.0539 0.9933 0.1024
vn 0.0012 -1.0000 -0.0012
vn -0.9995 0.0191 -0.0270
vn 0.1391 0.9812 -0.1334
vn 0.0879 0.9926 0.0843
vn -0.0926 0.9917 -0.0888
vn 0.1139 -0.9609 -0.2523
vn -0.1601 0.9640 0.2123
vn -0.2171 0.8762 -0.4302
vn 0.0830 0.3705 -0.9251
vn -0.0138 -0.9494 -0.3137
vn 0.9928 -0.0331 0.1151
vn 0.2336 0.8362 -0.4962
vn 0.2075 0.9720 0.1107
vn 1.0000 -0.0016 0.0025
vn -0.9875 -0.1566 -0.0167
vn -0.0369 0.7598 0.6492
vn 0.0091 -0.1596 0.9871
vn 0.0037 0.0101 0.9999
vn -0.6912 0.6893 0.2172
vn -0.0245 0.9888 0.1474
vn -0.9987 -0.0503 -0.0101
vn -0.0560 0.9970 0.0534
vn 0.0001 -0.2156 0.9765
vn -0.1229 0.7536 0.6457
vn -0.0084 0.9933 0.1151
vn 0.0019 -0.2068 0.9784
vn 0.0453 0.7194 0.6932
vn -0.0052 0.9847 0.1742
vn 0.0165 -0.0449 0.9989
vn -0.4603 0.8682 0.1854
vn 0.0129 0.7528 0.6582
vn -0.0374 -0.0625 0.9973
vn -0.1409 0.9897 0.0245
vn -0.1129 0.9911 0.0706
vn -0.0732 0.9949 0.0697
vn -0.0010 0.9912 0.1321
vn 0.0068 0.9919 0.1269
vn 0.0029 0.9910 0.1338
vn -0.7055 0.7079 -0.0349
vn -0.9945 -0.1047 -0.0026
vn -0.1022 0.9947 0.0140
vn -0.4384 0.8130 0.3832
vn 0.0428 0.9965 -0.0721
vn -0.0978 0.9951 -0.0130
vn -1.0000 -0.0022 -0.0027
vn -0.4400 0.8140 0.3792
vn -0.1012 0.9920 -0.0749
usemtl BG.001
s off
f 174/1/1 147/2/1 8/3/1 75/4/1
f 79/5/2 34/6/2 148/7/2 173/8/2
f 80/9/3 176/10/3 145/11/3 33/12/3
f 81/13/4 3/14/4 7/15/4 82/16/4
f 71/17/5 2/18/5 6/19/5 72/20/5
f 127/21/6 9/22/6 11/23/6 128/24/6
f 109/25/7 10/26/7 12/27/7 110/28/7
f 124/29/8 110/28/8 12/27/8 76/30/8
f 123/31/3 73/32/3 10/26/3 109/25/3
f 120/33/3 53/34/3 18/35/3 115/36/3
f 61/37/9 14/38/9 16/39/9 62/40/9
f 37/41/10 70/42/10 171/43/10 150/44/10
f 69/45/3 170/46/3 159/47/3 40/48/3
f 74/49/11 22/50/11 23/51/11 75/4/11
f 122/52/3 66/53/3 21/54/3 116/55/3
f 121/56/12 112/57/12 24/58/12 63/59/12
f 39/60/13 79/5/13 173/8/13 152/61/13
f 90/62/3 180/63/3 161/64/3 49/65/3
f 103/66/3 68/67/3 31/68/3 94/69/3
f 101/70/3 54/71/3 29/72/3 93/73/3
f 106/74/3 77/75/3 27/76/3 95/77/3
f 105/78/14 96/79/14 28/80/14 78/81/14
f 95/77/15 27/76/15 28/80/15 96/79/15
f 140/82/3 69/45/3 40/48/3 130/83/3
f 139/84/16 134/85/16 39/60/16 70/42/16
f 138/86/3 55/87/3 38/88/3 129/89/3
f 137/90/17 133/91/17 37/41/17 60/92/17
f 154/93/3 3/14/3 81/13/3 179/94/3
f 131/95/18 33/12/18 34/6/18 132/96/18
f 142/97/19 132/96/19 34/6/19 79/5/19
f 141/98/3 80/9/3 33/12/3 131/95/3
f 144/99/20 135/100/20 50/101/20 85/102/20
f 143/103/3 90/62/3 49/65/3 136/104/3
f 108/105/3 89/106/3 48/107/3 99/108/3
f 163/109/21 168/110/21 57/111/21 42/112/21
f 50/101/22 60/92/22 167/113/22 164/114/22
f 125/115/3 88/116/3 46/117/3 118/118/3
f 56/119/23 41/120/23 42/112/23 57/111/23
f 14/38/24 56/119/24 57/111/24 16/39/24
f 135/100/25 137/90/25 60/92/25 50/101/25
f 136/104/3 49/65/3 55/87/3 138/86/3
f 99/108/3 48/107/3 54/71/3 101/70/3
f 49/65/3 161/64/3 166/121/3 55/87/3
f 85/102/26 50/101/26 164/114/26 177/122/26
f 118/118/3 46/117/3 53/34/3 120/33/3
f 133/91/27 139/84/27 70/42/27 37/41/27
f 129/89/3 38/88/3 69/45/3 140/82/3
f 93/73/3 29/72/3 68/67/3 103/66/3
f 38/88/3 157/123/3 170/46/3 69/45/3
f 60/92/19 37/41/19 150/44/19 167/113/19
f 115/36/3 18/35/3 66/53/3 122/52/3
f 22/50/28 61/37/28 62/40/28 23/51/28
f 130/83/3 40/48/3 80/9/3 141/98/3
f 134/85/29 142/97/29 79/5/29 39/60/29
f 98/124/30 105/78/30 78/81/30 32/125/30
f 94/69/3 31/68/3 77/75/3 106/74/3
f 4/126/31 74/49/31 75/4/31 8/3/31
f 116/55/3 21/54/3 73/32/3 123/31/3
f 112/57/32 124/29/32 76/30/32 24/58/32
f 19/127/33 71/17/33 72/20/33 20/128/33
f 70/42/34 39/60/34 152/61/34 171/43/34
f 40/48/3 159/47/3 176/10/3 80/9/3
f 113/129/3 9/22/3 88/116/3 125/115/3
f 55/87/3 166/121/3 157/123/3 38/88/3
f 36/130/35 85/102/35 177/122/35 156/131/35
f 91/132/3 25/133/3 89/106/3 108/105/3
f 127/21/3 35/134/3 90/62/3 143/103/3
f 128/24/36 144/99/36 85/102/36 36/130/36
f 41/120/37 81/13/37 82/16/37 42/112/37
f 1/135/38 91/132/38 108/105/38 86/136/38
f 19/127/3 94/69/3 106/74/3 71/17/3
f 20/128/39 72/20/39 105/78/39 98/124/39
f 13/137/3 93/73/3 103/66/3 64/138/3
f 86/136/3 108/105/3 99/108/3 44/139/3
f 2/18/40 95/77/40 96/79/40 6/19/40
f 72/20/41 6/19/41 96/79/41 105/78/41
f 71/17/3 106/74/3 95/77/3 2/18/3
f 64/138/3 103/66/3 94/69/3 19/127/3
f 25/133/3 113/129/3 125/115/3 89/106/3
f 32/125/42 78/81/42 124/29/42 112/57/42
f 31/68/3 116/55/3 123/31/3 77/75/3
f 29/72/3 115/36/3 122/52/3 68/67/3
f 48/107/3 118/118/3 120/33/3 54/71/3
f 89/106/3 125/115/3 118/118/3 48/107/3
f 68/67/3 122/52/3 116/55/3 31/68/3
f 54/71/3 120/33/3 115/36/3 29/72/3
f 77/75/3 123/31/3 109/25/3 27/76/3
f 78/81/43 28/80/43 110/28/43 124/29/43
f 27/76/44 109/25/44 110/28/44 28/80/44
f 11/23/45 83/140/45 144/99/45 128/24/45
f 9/22/3 127/21/3 143/103/3 88/116/3
f 24/58/46 76/30/46 142/97/46 134/85/46
f 21/54/3 130/83/3 141/98/3 73/32/3
f 18/35/3 129/89/3 140/82/3 66/53/3
f 17/141/47 63/59/47 139/84/47 133/91/47
f 46/117/3 136/104/3 138/86/3 53/34/3
f 43/142/48 58/143/48 137/90/48 135/100/48
f 88/116/3 143/103/3 136/104/3 46/117/3
f 83/140/49 43/142/49 135/100/49 144/99/49
f 73/32/3 141/98/3 131/95/3 10/26/3
f 76/30/50 12/27/50 132/96/50 142/97/50
f 10/26/51 131/95/51 132/96/51 12/27/51
f 58/143/52 17/141/52 133/91/52 137/90/52
f 53/34/3 138/86/3 129/89/3 18/35/3
f 63/59/53 24/58/53 134/85/53 139/84/53
f 66/53/3 140/82/3 130/83/3 21/54/3
f 35/134/54 127/21/54 128/24/54 36/130/54
f 3/14/55 154/93/55 155/144/55 7/15/55
f 155/144/56 178/145/56 82/16/56 7/15/56
f 169/146/3 61/37/3 22/50/3 160/147/3
f 35/134/3 153/148/3 180/63/3 90/62/3
f 151/149/57 174/1/57 75/4/57 23/51/57
f 165/150/58 56/119/58 14/38/58 158/151/58
f 179/94/3 81/13/3 41/120/3 162/152/3
f 178/145/59 163/109/59 42/112/59 82/16/59
f 162/152/60 41/120/60 56/119/60 165/150/60
f 153/148/61 35/134/61 36/130/61 156/131/61
f 160/147/3 22/50/3 74/49/3 175/153/3
f 172/154/62 151/149/62 23/51/62 62/40/62
f 158/151/3 14/38/3 61/37/3 169/146/3
f 168/110/63 149/155/63 16/39/63 57/111/63
f 175/153/3 74/49/3 4/126/3 146/156/3
f 149/155/64 172/154/64 62/40/64 16/39/64
f 33/12/18 145/11/18 148/7/18 34/6/18
f 154/93/3 179/94/3 180/63/3 153/148/3
f 178/145/65 155/144/65 156/131/65 177/122/65
f 160/147/3 175/153/3 176/10/3 159/47/3
f 174/1/66 151/149/66 152/61/66 173/8/66
f 172/154/67 149/155/67 150/44/67 171/43/67
f 158/151/3 169/146/3 170/46/3 157/123/3
f 168/110/68 163/109/68 164/114/68 167/113/68
f 162/152/3 165/150/3 166/121/3 161/64/3
f 163/109/69 178/145/69 177/122/69 164/114/69
f 179/94/3 162/152/3 161/64/3 180/63/3
f 153/148/70 156/131/70 155/144/70 154/93/70
f 169/146/3 160/147/3 159/47/3 170/46/3
f 151/149/71 172/154/71 171/43/71 152/61/71
f 165/150/3 158/151/3 157/123/3 166/121/3
f 149/155/19 168/110/19 167/113/19 150/44/19
f 146/156/18 147/2/18 148/7/18 145/11/18
f 147/2/72 174/1/72 173/8/72 148/7/72
f 175/153/3 146/156/3 145/11/3 176/10/3
f 146/156/73 4/126/73 8/3/73 147/2/73
usemtl Stump1_2.001
f 91/132/74 1/135/74 5/157/74 92/158/74
f 119/159/75 111/160/75 17/141/75 58/143/75
f 51/161/76 13/137/76 15/162/76 52/163/76
f 64/138/77 19/127/77 20/128/77 65/164/77
f 104/165/78 98/124/78 32/125/78 67/166/78
f 102/167/79 97/168/79 30/169/79 59/170/79
f 113/129/80 25/133/80 26/171/80 114/172/80
f 107/173/81 100/174/81 47/175/81 84/176/81
f 86/136/82 44/139/82 45/177/82 87/178/82
f 126/179/83 117/180/83 43/142/83 83/140/83
f 100/174/84 102/167/84 59/170/84 47/175/84
f 44/139/85 51/161/85 52/163/85 45/177/85
f 117/180/86 119/159/86 58/143/86 43/142/86
f 97/168/87 104/165/87 67/166/87 30/169/87
f 13/137/88 64/138/88 65/164/88 15/162/88
f 111/160/89 121/56/89 63/59/89 17/141/89
f 114/172/90 126/179/90 83/140/90 11/23/90
f 1/135/91 86/136/91 87/178/91 5/157/91
f 92/158/92 107/173/92 84/176/92 26/171/92
f 5/157/93 87/178/93 107/173/93 92/158/93
f 15/162/94 65/164/94 104/165/94 97/168/94
f 45/177/95 52/163/95 102/167/95 100/174/95
f 44/139/3 99/108/3 101/70/3 51/161/3
f 87/178/96 45/177/96 100/174/96 107/173/96
f 51/161/3 101/70/3 93/73/3 13/137/3
f 52/163/97 15/162/97 97/168/97 102/167/97
f 65/164/98 20/128/98 98/124/98 104/165/98
f 25/133/99 91/132/99 92/158/99 26/171/99
f 26/171/100 84/176/100 126/179/100 114/172/100
f 30/169/101 67/166/101 121/56/101 111/160/101
f 47/175/102 59/170/102 119/159/102 117/180/102
f 84/176/103 47/175/103 117/180/103 126/179/103
f 9/22/104 113/129/104 114/172/104 11/23/104
f 67/166/105 32/125/105 112/57/105 121/56/105
f 59/170/106 30/169/106 111/160/106 119/159/106
