# Blender v2.81 (sub 16) OBJ File: 'NatureFreePack1.blend'
# www.blender.org
mtllib rock_xs.mtl
g Rock3_Icosphere.003
v -6.263650 -0.116131 4.353336
v -6.640690 -0.101521 4.904072
v -5.616486 -0.127065 4.566975
v -5.651955 -0.101975 5.216622
v -6.211327 0.197441 5.337638
v -5.814183 0.317997 5.188881
v -5.548383 0.167046 4.873848
v -6.083929 -0.202095 4.894948
v -6.258827 -0.124997 5.447367
v -6.492891 0.329275 4.797014
v -6.052627 0.317117 4.515526
v -6.412080 0.305641 5.221350
vt 0.335335 0.856142
vt 0.665666 0.573431
vt 0.665666 0.856142
vt 0.665666 0.284713
vt 0.665666 0.002002
vt 0.335335 0.284713
vt 0.998999 0.287716
vt 0.998999 0.570428
vt 0.668669 0.570428
vt 0.668669 0.856142
vt 0.998999 0.573431
vt 0.998999 0.856142
vt 0.665666 0.570428
vt 0.335335 0.570428
vt 0.665666 0.287716
vt 0.998999 0.002002
vt 0.668669 0.284713
vt 0.998999 0.284713
vt 0.667668 0.855141
vt 0.997998 0.572430
vt 0.667668 0.572430
vt 0.334334 0.569427
vt 0.664665 0.286715
vt 0.334334 0.286715
vt 0.664665 0.572430
vt 0.334334 0.572430
vt 0.334334 0.855141
vt 0.332332 0.002002
vt 0.002002 0.284713
vt 0.332332 0.284713
vt 0.997998 0.286715
vt 0.667668 0.286715
vt 0.667668 0.569427
vt 0.002002 0.570428
vt 0.332332 0.570428
vt 0.332332 0.287716
vt 0.667668 0.001001
vt 0.997998 0.001001
vt 0.667668 0.283712
vt 0.332332 0.998999
vt 0.002002 0.998999
vt 0.332332 0.859145
vt 0.002002 0.856142
vt 0.332332 0.573431
vt 0.332332 0.856142
vt 0.001001 0.855141
vt 0.331331 0.572430
vt 0.001001 0.572430
vt 0.001001 0.997998
vt 0.331331 0.858144
vt 0.001001 0.858144
vt 0.334334 0.283712
vt 0.334334 0.001001
vt 0.664665 0.001001
vt 0.331331 0.286715
vt 0.001001 0.569427
vt 0.001001 0.286715
vt 0.001001 0.283712
vt 0.331331 0.001001
vt 0.001001 0.001001
vn -0.4572 0.4984 -0.7366
vn -0.9122 0.3611 0.1938
vn 0.3423 0.1930 0.9196
vn -0.1785 -0.9792 -0.0962
vn -0.8153 0.1401 -0.5619
vn 0.9557 -0.2873 0.0633
vn -0.1759 -0.9811 0.0812
vn 0.3103 0.1970 -0.9300
vn -0.8179 0.0109 0.5753
vn 0.0393 -0.9848 -0.1693
vn 0.5938 0.5110 -0.6215
vn 0.3673 0.9208 -0.1313
vn 0.2626 0.2760 0.9246
vn 0.0205 0.7493 0.6619
vn 0.1014 -0.9804 0.1689
vn 0.1912 -0.9804 0.0483
vn -0.3229 0.3472 0.8805
vn 0.7928 0.3397 0.5061
vn 0.0562 0.9974 0.0448
vn -0.0203 0.9998 0.0059
usemtl Rock1_1.001
s 1
f 1/1/1 10/2/1 11/3/1
f 10/4/2 2/5/2 12/6/2
f 9/7/3 4/8/3 6/9/3
f 2/10/4 1/11/4 8/12/4
f 2/13/5 10/14/5 1/15/5
f 4/16/6 3/17/6 7/18/6
f 9/19/7 2/20/7 8/21/7
f 3/22/8 1/23/8 11/24/8
f 9/25/9 12/26/9 2/27/9
f 1/28/10 3/29/10 8/30/10
f 7/31/11 3/32/11 11/33/11
f 6/34/12 7/35/12 11/36/12
f 5/37/13 9/38/13 6/39/13
f 5/40/14 6/41/14 12/42/14
f 4/43/15 9/44/15 8/45/15
f 3/46/16 4/47/16 8/48/16
f 12/49/17 9/50/17 5/51/17
f 4/52/18 7/53/18 6/54/18
f 12/55/19 11/56/19 10/57/19
f 11/58/20 12/59/20 6/60/20
