# Blender v2.81 (sub 16) OBJ File: 'bigWorld_correctNormals.blend'
# www.blender.org
mtllib waterSmal2l.mtl
o waterSmall_Cylinder.006
v -11.865747 91.482590 -108.615097
v -11.865747 106.062103 -109.142021
v -9.813439 91.482590 -102.823921
v -9.813439 106.062103 -102.823921
v -9.120462 91.482590 -96.253342
v -9.120462 106.062103 -96.253342
v -9.813439 91.482590 -89.682755
v -9.813439 106.062103 -89.682755
v -11.865747 91.482590 -83.364655
v -11.865747 106.062103 -83.364655
v -15.198486 91.482590 -77.541862
v -15.198486 106.062103 -77.541862
v -19.683611 91.482590 -72.438156
v -19.683611 106.062103 -72.438156
v -25.148760 91.482590 -68.249649
v -25.148760 106.062103 -68.249649
v -31.383898 91.482590 -65.137306
v -31.383898 106.062103 -65.137306
v -38.149418 91.482590 -63.220734
v -38.149418 106.062103 -63.220734
v -45.185322 91.482590 -62.573582
v -45.185322 106.062103 -62.573582
v -52.221218 91.482590 -63.220734
v -52.221218 106.062103 -63.220734
v -58.986748 91.482590 -65.137306
v -58.986748 106.062103 -65.137306
v -65.221886 91.482590 -68.249664
v -65.221886 106.062103 -68.249664
v -70.687027 91.482590 -72.438171
v -70.687027 106.062103 -72.438171
v -75.172142 91.482590 -77.541878
v -75.172142 106.062103 -77.541878
v -76.846977 91.482590 -77.055664
v -76.846977 106.062103 -77.055664
v -64.026054 91.482590 -87.577484
v -64.026054 106.062103 -87.577484
v -17.351954 106.062103 -106.988457
v -17.351954 91.482590 -106.924980
v -41.641071 106.062103 -101.960136
v -41.641071 91.482590 -101.632942
v -12.798300 91.482590 -107.373474
v -12.798300 106.062103 -107.436951
vt 0.812500 0.500000
vt 0.812500 1.000000
vt 0.781250 1.000000
vt 0.781250 0.500000
vt 0.750000 1.000000
vt 0.750000 0.500000
vt 0.718750 1.000000
vt 0.718750 0.500000
vt 0.687500 1.000000
vt 0.687500 0.500000
vt 0.656250 1.000000
vt 0.656250 0.500000
vt 0.625000 1.000000
vt 0.625000 0.500000
vt 0.593750 1.000000
vt 0.593750 0.500000
vt 0.562500 1.000000
vt 0.562500 0.500000
vt 0.531250 1.000000
vt 0.531250 0.500000
vt 0.500000 1.000000
vt 0.500000 0.500000
vt 0.468750 1.000000
vt 0.468750 0.500000
vt 0.437500 1.000000
vt 0.437500 0.500000
vt 0.406250 1.000000
vt 0.406250 0.500000
vt 0.375000 1.000000
vt 0.375000 0.500000
vt 0.343750 1.000000
vt 0.343750 0.500000
vt 0.328046 1.000000
vt 0.328046 0.500000
vt 0.062500 0.530499
vt 0.093750 0.812005
vt 0.062500 0.812005
vt 0.490000 0.250000
vt 0.485388 0.296822
vt 0.435222 0.350258
vt 0.031250 0.530499
vt 0.031250 0.812005
vt 0.114170 0.530499
vt 0.093750 0.530499
vt 0.821244 0.500000
vt 0.821244 1.000000
vt 0.985388 0.203178
vt 0.971731 0.158156
vt 0.773586 0.297755
vt 0.025616 0.530499
vt 0.465525 0.353454
vt 0.273586 0.297755
vt 0.485388 0.203178
vt 0.471731 0.158156
vt 0.124621 0.212493
vt 0.250000 0.010000
vt 0.039302 0.137515
vt 0.050447 0.116663
vt 0.080294 0.080294
vt 0.116663 0.050447
vt 0.471731 0.341844
vt 0.158156 0.028269
vt 0.203178 0.014612
vt 0.296822 0.014612
vt 0.341844 0.028269
vt 0.383337 0.050447
vt 0.419706 0.080294
vt 0.449553 0.116663
vt 0.550447 0.116663
vt 0.539302 0.137515
vt 0.624621 0.212493
vt 0.750000 0.010000
vt 0.935222 0.350259
vt 0.990000 0.250000
vt 0.965525 0.353454
vt 0.971731 0.341844
vt 0.985388 0.296822
vt 0.580294 0.080294
vt 0.658156 0.028269
vt 0.616663 0.050447
vt 0.703178 0.014612
vt 0.841844 0.028269
vt 0.796822 0.014612
vt 0.919706 0.080294
vt 0.883337 0.050447
vt 0.949553 0.116663
vt 0.114170 0.812005
vt 0.025616 0.812005
vn 0.9471 -0.0058 -0.3210
vn 0.9945 0.0000 -0.1049
vn 0.9945 0.0000 0.1049
vn 0.9511 0.0000 0.3089
vn 0.8679 0.0000 0.4967
vn 0.7512 0.0000 0.6601
vn 0.6083 0.0000 0.7937
vn 0.4466 0.0000 0.8947
vn 0.2726 0.0000 0.9621
vn 0.0916 0.0000 0.9958
vn -0.0916 0.0000 0.9958
vn -0.2726 0.0000 0.9621
vn -0.4466 0.0000 0.8947
vn -0.6083 0.0000 0.7937
vn -0.7512 0.0000 0.6601
vn 0.2788 0.0000 0.9604
vn -0.5405 -0.0189 -0.8412
vn 0.0000 1.0000 0.0000
vn -0.2027 -0.0043 -0.9792
vn -0.6344 0.0000 -0.7730
vn -0.8449 -0.0108 -0.5348
vn 0.0000 -1.0000 0.0000
vn -0.0980 -0.0043 -0.9952
vn -0.5318 0.0000 -0.8469
vn -0.2128 -0.0219 -0.9768
usemtl Water
s off
f 1/1/1 2/2/1 4/3/1 3/4/1
f 3/4/2 4/3/2 6/5/2 5/6/2
f 5/6/3 6/5/3 8/7/3 7/8/3
f 7/8/4 8/7/4 10/9/4 9/10/4
f 9/10/5 10/9/5 12/11/5 11/12/5
f 11/12/6 12/11/6 14/13/6 13/14/6
f 13/14/7 14/13/7 16/15/7 15/16/7
f 15/16/8 16/15/8 18/17/8 17/18/8
f 17/18/9 18/17/9 20/19/9 19/20/9
f 19/20/10 20/19/10 22/21/10 21/22/10
f 21/22/11 22/21/11 24/23/11 23/24/11
f 23/24/12 24/23/12 26/25/12 25/26/12
f 25/26/13 26/25/13 28/27/13 27/28/13
f 27/28/14 28/27/14 30/29/14 29/30/14
f 29/30/15 30/29/15 32/31/15 31/32/15
f 31/32/16 32/31/16 34/33/16 33/34/16
f 40/35/17 36/36/17 39/37/17
f 6/38/18 4/39/18 37/40/18
f 38/41/19 39/37/19 37/42/19
f 33/43/20 36/36/20 35/44/20
f 41/45/21 42/46/21 2/2/21 1/1/21
f 7/47/22 9/48/22 40/49/22
f 37/42/23 41/50/23 38/41/23
f 42/51/18 37/40/18 4/39/18
f 37/40/18 39/52/18 8/53/18
f 8/53/18 39/52/18 10/54/18
f 39/52/18 36/55/18 22/56/18
f 36/55/18 34/57/18 32/58/18
f 32/58/18 30/59/18 36/55/18
f 30/59/18 28/60/18 36/55/18
f 4/39/18 2/61/18 42/51/18
f 36/55/18 28/60/18 26/62/18
f 24/63/18 36/55/18 26/62/18
f 24/63/18 22/56/18 36/55/18
f 22/56/18 20/64/18 39/52/18
f 20/64/18 18/65/18 39/52/18
f 18/65/18 16/66/18 39/52/18
f 16/66/18 14/67/18 39/52/18
f 14/67/18 12/68/18 39/52/18
f 12/68/18 10/54/18 39/52/18
f 8/53/18 6/38/18 37/40/18
f 31/69/22 33/70/22 35/71/22
f 35/71/22 40/49/22 21/72/22
f 40/49/22 38/73/22 7/47/22
f 7/47/22 38/73/22 5/74/22
f 41/75/22 1/76/22 3/77/22
f 38/73/22 41/75/22 3/77/22
f 5/74/22 38/73/22 3/77/22
f 29/78/22 31/69/22 35/71/22
f 25/79/22 27/80/22 35/71/22
f 27/80/22 29/78/22 35/71/22
f 21/72/22 23/81/22 35/71/22
f 23/81/22 25/79/22 35/71/22
f 17/82/22 19/83/22 40/49/22
f 19/83/22 21/72/22 40/49/22
f 13/84/22 15/85/22 40/49/22
f 15/85/22 17/82/22 40/49/22
f 9/48/22 11/86/22 40/49/22
f 11/86/22 13/84/22 40/49/22
f 40/35/24 35/44/24 36/36/24
f 38/41/25 40/35/25 39/37/25
f 33/43/20 34/87/20 36/36/20
f 37/42/23 42/88/23 41/50/23
